<?xml version="1.0" encoding="utf-8"?>
<!-- Generator: Adobe Illustrator 24.3.0, SVG Export Plug-In . SVG Version: 6.00 Build 0)  -->
<svg version="1.1" id="Layer_1" xmlns="http://www.w3.org/2000/svg" xmlns:xlink="http://www.w3.org/1999/xlink" x="0px" y="0px"
	 viewBox="0 0 344.33 108.57" style="enable-background:new 0 0 344.33 108.57;" xml:space="preserve">
<style type="text/css">
	.st0{fill:#262252;}
	.st1{fill:#E51A71;}
</style>
<g>
	<path class="st0" d="M72.9,107.37c-7.31,0-14.63,0-21.94,0c-0.32-0.06-0.64-0.14-0.97-0.18c-2.16-0.3-4.36-0.47-6.49-0.92
		c-12.36-2.64-22.52-8.92-30.44-18.75c-5.97-7.41-9.63-15.86-11-25.29c-0.21-1.44-0.39-2.88-0.58-4.31c0-2.26,0-4.52,0-6.78
		c0.06-0.29,0.14-0.57,0.18-0.86c0.31-2.19,0.49-4.42,0.95-6.58c2.51-11.9,8.46-21.79,17.72-29.64c7.2-6.11,15.49-9.98,24.82-11.58
		c1.92-0.33,3.86-0.54,5.79-0.8c7.31,0,14.63,0,21.94,0c0.65,0.08,1.3,0.16,1.95,0.23c8.4,0.91,16.17,3.6,23.28,8.18
		c0.21,0.14,0.44,0.25,0.72,0.42c0.14-0.37,0.26-0.67,0.37-0.98c0.93-2.55,2.49-4.65,4.84-5.97c1.47-0.83,3.15-1.27,4.74-1.88
		c4.52,0,9.04,0,13.56,0c-0.01,0.33-0.02,0.66-0.02,1c0,34.57,0,69.15,0,103.72c0,0.33,0.02,0.66,0.02,1c-4.52,0-9.04,0-13.56,0
		c-0.15-0.06-0.29-0.15-0.44-0.18c-3.65-0.66-6.4-2.63-8.27-5.81c-0.51-0.87-0.85-1.84-1.3-2.81c-0.24,0.15-0.47,0.28-0.69,0.41
		c-6.03,3.85-12.53,6.46-19.6,7.61C76.64,106.9,74.77,107.12,72.9,107.37z M61.95,25.58C61.95,25.58,61.95,25.58,61.95,25.58
		c-1.69-0.01-3.39-0.06-5.08,0.01c-2.68,0.11-5.42,0-8.03,0.52c-16.23,3.19-26.33,18.69-22.81,34.8
		c2.82,12.9,14.52,22.44,27.7,22.53c5.52,0.04,11.04,0.09,16.55-0.04c2.23-0.05,4.52-0.35,6.67-0.93
		c17.11-4.62,26.03-22.85,19.27-39.22c-4.33-10.48-14.87-17.59-26.19-17.67C67.34,25.57,64.65,25.58,61.95,25.58z"/>
	<path class="st1" d="M224.29,1.66c8.98,0,17.95,0,26.93,0c0.08,0.05,0.16,0.13,0.25,0.14c3.14,0.47,5.62,2.05,7.63,4.46
		c6.48,7.79,12.97,15.57,19.45,23.36c1.72,2.06,3.44,4.12,5.2,6.21c0.26-0.28,0.47-0.49,0.66-0.71c8.08-9.7,16.16-19.4,24.24-29.1
		c1.57-1.89,3.54-3.18,5.89-3.9c0.56-0.17,1.13-0.31,1.69-0.47c8.78,0,17.55,0,26.33,0.01c0.27,0,0.53,0.12,0.8,0.19
		c-0.3,0.3-0.63,0.57-0.9,0.89c-5.85,7.01-11.69,14.03-17.54,21.04c-8.38,10.05-16.76,20.1-25.15,30.14
		c-0.37,0.44-0.38,0.73-0.01,1.18c3.7,4.4,7.37,8.81,11.05,13.23c9.57,11.48,19.13,22.96,28.71,34.43c1.25,1.49,2.55,2.94,3.83,4.41
		c-0.27,0.07-0.53,0.19-0.8,0.19c-8.71,0.01-17.42,0.01-26.13,0.01c-0.19-0.06-0.37-0.15-0.56-0.18c-2.83-0.47-5.2-1.79-7.04-3.98
		c-6.76-8.07-13.49-16.17-20.23-24.26c-1.59-1.91-3.18-3.81-4.9-5.88c-0.14,0.24-0.2,0.4-0.31,0.53
		c-7.67,9.21-15.36,18.41-23.02,27.64c-1.88,2.27-3.78,4.48-6.7,5.43c-0.81,0.26-1.64,0.47-2.46,0.7c-8.98,0-17.95,0-26.93,0
		c0.25-0.35,0.48-0.71,0.75-1.04c3.49-4.19,6.98-8.37,10.47-12.55c9.23-11.07,18.47-22.15,27.7-33.22c1.67-2.01,3.34-4.02,5.03-6.05
		c-2.55-3.06-5.04-6.04-7.53-9.02C250.14,32.81,239.56,20.13,229,7.44C227.41,5.53,225.86,3.59,224.29,1.66z"/>
	<path class="st0" d="M135.33,107.37c0.06-4.78-0.3-9.6,0.27-14.32c0.69-5.68,5.85-9.59,11.62-9.6c12.66-0.02,25.33,0.15,37.99-0.06
		c13.48-0.22,25.43-10.1,27.91-23.46c2.87-15.47-6.62-30.01-21.9-33.62c-1.86-0.44-3.8-0.69-5.71-0.69
		c-12.66-0.06-25.32-0.03-37.99-0.04c-6.14,0-10.86-3.86-12.09-9.88c-0.07-0.36-0.11-0.72-0.11-1.09c0-4.32,0.01-8.63,0.01-12.95
		c17.55,0,35.11,0,52.66,0c0.32,0.06,0.64,0.14,0.97,0.18c2.17,0.3,4.36,0.46,6.49,0.92c12.48,2.66,22.79,8.96,30.64,19.01
		c10.05,12.87,13.47,27.49,10.26,43.48c-2.49,12.41-8.99,22.51-18.85,30.41c-7.56,6.06-16.18,9.78-25.8,11.14
		c-1.44,0.2-2.88,0.38-4.32,0.57C170.04,107.37,152.69,107.37,135.33,107.37z"/>
</g>
</svg>
